<svg width="305" height="118" viewBox="0 0 305 118" fill="none" xmlns="http://www.w3.org/2000/svg">
<g clip-path="url(#clip0_19_13516)">
<g clip-path="url(#clip1_19_13516)">
<rect width="303.75" height="118" transform="translate(0.75)" fill="#FBFBFB"/>
<path d="M-33.25 -8H-32.25V-7H-33.25V-8Z" fill="#D9D9D9"/>
<path d="M-21.25 -8H-20.25V-7H-21.25V-8Z" fill="#D9D9D9"/>
<path d="M-9.25 -8H-8.25V-7H-9.25V-8Z" fill="#D9D9D9"/>
<path d="M2.75 -8H3.75V-7H2.75V-8Z" fill="#D9D9D9"/>
<path d="M14.75 -8H15.75V-7H14.75V-8Z" fill="#D9D9D9"/>
<path d="M26.75 -8H27.75V-7H26.75V-8Z" fill="#D9D9D9"/>
<path d="M38.75 -8H39.75V-7H38.75V-8Z" fill="#D9D9D9"/>
<path d="M50.75 -8H51.75V-7H50.75V-8Z" fill="#D9D9D9"/>
<path d="M62.75 -8H63.75V-7H62.75V-8Z" fill="#D9D9D9"/>
<path d="M74.75 -8H75.75V-7H74.75V-8Z" fill="#D9D9D9"/>
<path d="M86.75 -8H87.75V-7H86.75V-8Z" fill="#D9D9D9"/>
<path d="M98.75 -8H99.75V-7H98.75V-8Z" fill="#D9D9D9"/>
<path d="M110.75 -8H111.75V-7H110.75V-8Z" fill="#D9D9D9"/>
<path d="M122.75 -8H123.75V-7H122.75V-8Z" fill="#D9D9D9"/>
<path d="M134.75 -8H135.75V-7H134.75V-8Z" fill="#D9D9D9"/>
<path d="M146.75 -8H147.75V-7H146.75V-8Z" fill="#D9D9D9"/>
<path d="M158.75 -8H159.75V-7H158.75V-8Z" fill="#D9D9D9"/>
<path d="M170.75 -8H171.75V-7H170.75V-8Z" fill="#D9D9D9"/>
<path d="M182.75 -8H183.75V-7H182.75V-8Z" fill="#D9D9D9"/>
<path d="M194.75 -8H195.75V-7H194.75V-8Z" fill="#D9D9D9"/>
<path d="M206.75 -8H207.75V-7H206.75V-8Z" fill="#D9D9D9"/>
<path d="M218.75 -8H219.75V-7H218.75V-8Z" fill="#D9D9D9"/>
<path d="M230.75 -8H231.75V-7H230.75V-8Z" fill="#D9D9D9"/>
<path d="M242.75 -8H243.75V-7H242.75V-8Z" fill="#D9D9D9"/>
<path d="M254.75 -8H255.75V-7H254.75V-8Z" fill="#D9D9D9"/>
<path d="M266.75 -8H267.75V-7H266.75V-8Z" fill="#D9D9D9"/>
<path d="M278.75 -8H279.75V-7H278.75V-8Z" fill="#D9D9D9"/>
<path d="M290.75 -8H291.75V-7H290.75V-8Z" fill="#D9D9D9"/>
<path d="M302.75 -8H303.75V-7H302.75V-8Z" fill="#D9D9D9"/>
<path d="M314.75 -8H315.75V-7H314.75V-8Z" fill="#D9D9D9"/>
<path d="M326.75 -8H327.75V-7H326.75V-8Z" fill="#D9D9D9"/>
<path d="M338.75 -8H339.75V-7H338.75V-8Z" fill="#D9D9D9"/>
<path d="M-33.25 4H-32.25V5H-33.25V4Z" fill="#D9D9D9"/>
<path d="M-21.25 4H-20.25V5H-21.25V4Z" fill="#D9D9D9"/>
<path d="M-9.25 4H-8.25V5H-9.25V4Z" fill="#D9D9D9"/>
<path d="M2.75 4H3.75V5H2.75V4Z" fill="#D9D9D9"/>
<path d="M14.75 4H15.75V5H14.75V4Z" fill="#D9D9D9"/>
<path d="M26.75 4H27.75V5H26.75V4Z" fill="#D9D9D9"/>
<path d="M38.75 4H39.75V5H38.75V4Z" fill="#D9D9D9"/>
<path d="M50.75 4H51.75V5H50.75V4Z" fill="#D9D9D9"/>
<path d="M62.75 4H63.75V5H62.75V4Z" fill="#D9D9D9"/>
<path d="M74.75 4H75.75V5H74.75V4Z" fill="#D9D9D9"/>
<path d="M86.75 4H87.75V5H86.75V4Z" fill="#D9D9D9"/>
<path d="M98.75 4H99.75V5H98.75V4Z" fill="#D9D9D9"/>
<path d="M110.75 4H111.75V5H110.75V4Z" fill="#D9D9D9"/>
<path d="M122.75 4H123.75V5H122.75V4Z" fill="#D9D9D9"/>
<path d="M134.75 4H135.75V5H134.75V4Z" fill="#D9D9D9"/>
<path d="M146.75 4H147.75V5H146.75V4Z" fill="#D9D9D9"/>
<path d="M158.75 4H159.75V5H158.75V4Z" fill="#D9D9D9"/>
<path d="M170.75 4H171.75V5H170.75V4Z" fill="#D9D9D9"/>
<path d="M182.75 4H183.75V5H182.75V4Z" fill="#D9D9D9"/>
<path d="M194.75 4H195.75V5H194.75V4Z" fill="#D9D9D9"/>
<path d="M206.75 4H207.75V5H206.75V4Z" fill="#D9D9D9"/>
<path d="M218.75 4H219.75V5H218.75V4Z" fill="#D9D9D9"/>
<path d="M230.75 4H231.75V5H230.75V4Z" fill="#D9D9D9"/>
<path d="M242.75 4H243.75V5H242.75V4Z" fill="#D9D9D9"/>
<path d="M254.75 4H255.75V5H254.75V4Z" fill="#D9D9D9"/>
<path d="M266.75 4H267.75V5H266.75V4Z" fill="#D9D9D9"/>
<path d="M278.75 4H279.75V5H278.75V4Z" fill="#D9D9D9"/>
<path d="M290.75 4H291.75V5H290.75V4Z" fill="#D9D9D9"/>
<path d="M302.75 4H303.75V5H302.75V4Z" fill="#D9D9D9"/>
<path d="M314.75 4H315.75V5H314.75V4Z" fill="#D9D9D9"/>
<path d="M326.75 4H327.75V5H326.75V4Z" fill="#D9D9D9"/>
<path d="M338.75 4H339.75V5H338.75V4Z" fill="#D9D9D9"/>
<path d="M-33.25 16H-32.25V17H-33.25V16Z" fill="#D9D9D9"/>
<path d="M-21.25 16H-20.25V17H-21.25V16Z" fill="#D9D9D9"/>
<path d="M-9.25 16H-8.25V17H-9.25V16Z" fill="#D9D9D9"/>
<path d="M2.75 16H3.75V17H2.75V16Z" fill="#D9D9D9"/>
<path d="M14.75 16H15.75V17H14.75V16Z" fill="#D9D9D9"/>
<path d="M26.75 16H27.75V17H26.75V16Z" fill="#D9D9D9"/>
<path d="M38.75 16H39.75V17H38.75V16Z" fill="#D9D9D9"/>
<path d="M50.75 16H51.75V17H50.75V16Z" fill="#D9D9D9"/>
<path d="M62.75 16H63.75V17H62.75V16Z" fill="#D9D9D9"/>
<path d="M74.75 16H75.75V17H74.75V16Z" fill="#D9D9D9"/>
<path d="M86.75 16H87.75V17H86.75V16Z" fill="#D9D9D9"/>
<path d="M98.75 16H99.75V17H98.75V16Z" fill="#D9D9D9"/>
<path d="M110.75 16H111.75V17H110.75V16Z" fill="#D9D9D9"/>
<path d="M122.75 16H123.75V17H122.75V16Z" fill="#D9D9D9"/>
<path d="M134.75 16H135.75V17H134.75V16Z" fill="#D9D9D9"/>
<path d="M146.75 16H147.75V17H146.75V16Z" fill="#D9D9D9"/>
<path d="M158.75 16H159.75V17H158.75V16Z" fill="#D9D9D9"/>
<path d="M170.75 16H171.75V17H170.75V16Z" fill="#D9D9D9"/>
<path d="M182.75 16H183.75V17H182.75V16Z" fill="#D9D9D9"/>
<path d="M194.75 16H195.75V17H194.75V16Z" fill="#D9D9D9"/>
<path d="M206.75 16H207.75V17H206.75V16Z" fill="#D9D9D9"/>
<path d="M218.75 16H219.75V17H218.75V16Z" fill="#D9D9D9"/>
<path d="M230.75 16H231.75V17H230.75V16Z" fill="#D9D9D9"/>
<path d="M242.75 16H243.75V17H242.75V16Z" fill="#D9D9D9"/>
<path d="M254.75 16H255.75V17H254.75V16Z" fill="#D9D9D9"/>
<path d="M266.75 16H267.75V17H266.75V16Z" fill="#D9D9D9"/>
<path d="M278.75 16H279.75V17H278.75V16Z" fill="#D9D9D9"/>
<path d="M290.75 16H291.75V17H290.75V16Z" fill="#D9D9D9"/>
<path d="M302.75 16H303.75V17H302.75V16Z" fill="#D9D9D9"/>
<path d="M314.75 16H315.75V17H314.75V16Z" fill="#D9D9D9"/>
<path d="M326.75 16H327.75V17H326.75V16Z" fill="#D9D9D9"/>
<path d="M338.75 16H339.75V17H338.75V16Z" fill="#D9D9D9"/>
<path d="M-33.25 28H-32.25V29H-33.25V28Z" fill="#D9D9D9"/>
<path d="M-21.25 28H-20.25V29H-21.25V28Z" fill="#D9D9D9"/>
<path d="M-9.25 28H-8.25V29H-9.25V28Z" fill="#D9D9D9"/>
<path d="M2.75 28H3.75V29H2.75V28Z" fill="#D9D9D9"/>
<path d="M14.75 28H15.75V29H14.75V28Z" fill="#D9D9D9"/>
<path d="M26.75 28H27.75V29H26.75V28Z" fill="#D9D9D9"/>
<path d="M38.75 28H39.75V29H38.75V28Z" fill="#D9D9D9"/>
<path d="M50.75 28H51.75V29H50.75V28Z" fill="#D9D9D9"/>
<path d="M62.75 28H63.75V29H62.75V28Z" fill="#D9D9D9"/>
<path d="M74.75 28H75.75V29H74.75V28Z" fill="#D9D9D9"/>
<path d="M86.75 28H87.75V29H86.75V28Z" fill="#D9D9D9"/>
<path d="M98.75 28H99.75V29H98.75V28Z" fill="#D9D9D9"/>
<path d="M110.75 28H111.75V29H110.75V28Z" fill="#D9D9D9"/>
<path d="M122.75 28H123.75V29H122.75V28Z" fill="#D9D9D9"/>
<path d="M134.75 28H135.75V29H134.75V28Z" fill="#D9D9D9"/>
<path d="M146.75 28H147.75V29H146.75V28Z" fill="#D9D9D9"/>
<path d="M158.75 28H159.75V29H158.75V28Z" fill="#D9D9D9"/>
<path d="M170.75 28H171.75V29H170.75V28Z" fill="#D9D9D9"/>
<path d="M182.75 28H183.75V29H182.75V28Z" fill="#D9D9D9"/>
<path d="M194.75 28H195.75V29H194.75V28Z" fill="#D9D9D9"/>
<path d="M206.75 28H207.75V29H206.75V28Z" fill="#D9D9D9"/>
<path d="M218.75 28H219.75V29H218.75V28Z" fill="#D9D9D9"/>
<path d="M230.75 28H231.75V29H230.75V28Z" fill="#D9D9D9"/>
<path d="M242.75 28H243.75V29H242.75V28Z" fill="#D9D9D9"/>
<path d="M254.75 28H255.75V29H254.75V28Z" fill="#D9D9D9"/>
<path d="M266.75 28H267.75V29H266.75V28Z" fill="#D9D9D9"/>
<path d="M278.75 28H279.75V29H278.75V28Z" fill="#D9D9D9"/>
<path d="M290.75 28H291.75V29H290.75V28Z" fill="#D9D9D9"/>
<path d="M302.75 28H303.75V29H302.75V28Z" fill="#D9D9D9"/>
<path d="M314.75 28H315.75V29H314.75V28Z" fill="#D9D9D9"/>
<path d="M326.75 28H327.75V29H326.75V28Z" fill="#D9D9D9"/>
<path d="M338.75 28H339.75V29H338.75V28Z" fill="#D9D9D9"/>
<path d="M-33.25 40H-32.25V41H-33.25V40Z" fill="#D9D9D9"/>
<path d="M-21.25 40H-20.25V41H-21.25V40Z" fill="#D9D9D9"/>
<path d="M-9.25 40H-8.25V41H-9.25V40Z" fill="#D9D9D9"/>
<path d="M2.75 40H3.75V41H2.75V40Z" fill="#D9D9D9"/>
<path d="M14.75 40H15.75V41H14.75V40Z" fill="#D9D9D9"/>
<path d="M26.75 40H27.75V41H26.75V40Z" fill="#D9D9D9"/>
<path d="M38.75 40H39.75V41H38.75V40Z" fill="#D9D9D9"/>
<path d="M50.75 40H51.75V41H50.75V40Z" fill="#D9D9D9"/>
<path d="M62.75 40H63.75V41H62.75V40Z" fill="#D9D9D9"/>
<path d="M74.75 40H75.75V41H74.75V40Z" fill="#D9D9D9"/>
<path d="M86.75 40H87.75V41H86.75V40Z" fill="#D9D9D9"/>
<path d="M98.75 40H99.75V41H98.75V40Z" fill="#D9D9D9"/>
<path d="M110.75 40H111.75V41H110.75V40Z" fill="#D9D9D9"/>
<path d="M122.75 40H123.75V41H122.75V40Z" fill="#D9D9D9"/>
<path d="M134.75 40H135.75V41H134.75V40Z" fill="#D9D9D9"/>
<path d="M146.75 40H147.75V41H146.75V40Z" fill="#D9D9D9"/>
<path d="M158.75 40H159.75V41H158.75V40Z" fill="#D9D9D9"/>
<path d="M170.75 40H171.75V41H170.75V40Z" fill="#D9D9D9"/>
<path d="M182.75 40H183.75V41H182.75V40Z" fill="#D9D9D9"/>
<path d="M194.75 40H195.75V41H194.75V40Z" fill="#D9D9D9"/>
<path d="M206.75 40H207.75V41H206.75V40Z" fill="#D9D9D9"/>
<path d="M218.75 40H219.75V41H218.75V40Z" fill="#D9D9D9"/>
<path d="M230.75 40H231.75V41H230.75V40Z" fill="#D9D9D9"/>
<path d="M242.75 40H243.75V41H242.75V40Z" fill="#D9D9D9"/>
<path d="M254.75 40H255.75V41H254.75V40Z" fill="#D9D9D9"/>
<path d="M266.75 40H267.75V41H266.75V40Z" fill="#D9D9D9"/>
<path d="M278.75 40H279.75V41H278.75V40Z" fill="#D9D9D9"/>
<path d="M290.75 40H291.75V41H290.75V40Z" fill="#D9D9D9"/>
<path d="M302.75 40H303.75V41H302.75V40Z" fill="#D9D9D9"/>
<path d="M314.75 40H315.75V41H314.75V40Z" fill="#D9D9D9"/>
<path d="M326.75 40H327.75V41H326.75V40Z" fill="#D9D9D9"/>
<path d="M338.75 40H339.75V41H338.75V40Z" fill="#D9D9D9"/>
<path d="M-33.25 52H-32.25V53H-33.25V52Z" fill="#D9D9D9"/>
<path d="M-21.25 52H-20.25V53H-21.25V52Z" fill="#D9D9D9"/>
<path d="M-9.25 52H-8.25V53H-9.25V52Z" fill="#D9D9D9"/>
<path d="M2.75 52H3.75V53H2.75V52Z" fill="#D9D9D9"/>
<path d="M14.75 52H15.75V53H14.75V52Z" fill="#D9D9D9"/>
<path d="M26.75 52H27.75V53H26.75V52Z" fill="#D9D9D9"/>
<path d="M38.75 52H39.75V53H38.75V52Z" fill="#D9D9D9"/>
<path d="M50.75 52H51.75V53H50.75V52Z" fill="#D9D9D9"/>
<path d="M62.75 52H63.75V53H62.75V52Z" fill="#D9D9D9"/>
<path d="M74.75 52H75.75V53H74.75V52Z" fill="#D9D9D9"/>
<path d="M86.75 52H87.75V53H86.75V52Z" fill="#D9D9D9"/>
<path d="M98.75 52H99.75V53H98.75V52Z" fill="#D9D9D9"/>
<path d="M110.75 52H111.75V53H110.75V52Z" fill="#D9D9D9"/>
<path d="M122.75 52H123.75V53H122.75V52Z" fill="#D9D9D9"/>
<path d="M134.75 52H135.75V53H134.75V52Z" fill="#D9D9D9"/>
<path d="M146.75 52H147.75V53H146.75V52Z" fill="#D9D9D9"/>
<path d="M158.75 52H159.75V53H158.75V52Z" fill="#D9D9D9"/>
<path d="M170.75 52H171.75V53H170.75V52Z" fill="#D9D9D9"/>
<path d="M182.75 52H183.75V53H182.75V52Z" fill="#D9D9D9"/>
<path d="M194.75 52H195.75V53H194.75V52Z" fill="#D9D9D9"/>
<path d="M206.75 52H207.75V53H206.75V52Z" fill="#D9D9D9"/>
<path d="M218.75 52H219.75V53H218.75V52Z" fill="#D9D9D9"/>
<path d="M230.75 52H231.75V53H230.75V52Z" fill="#D9D9D9"/>
<path d="M242.75 52H243.75V53H242.75V52Z" fill="#D9D9D9"/>
<path d="M254.75 52H255.75V53H254.75V52Z" fill="#D9D9D9"/>
<path d="M266.75 52H267.75V53H266.75V52Z" fill="#D9D9D9"/>
<path d="M278.75 52H279.75V53H278.75V52Z" fill="#D9D9D9"/>
<path d="M290.75 52H291.75V53H290.75V52Z" fill="#D9D9D9"/>
<path d="M302.75 52H303.75V53H302.75V52Z" fill="#D9D9D9"/>
<path d="M314.75 52H315.75V53H314.75V52Z" fill="#D9D9D9"/>
<path d="M326.75 52H327.75V53H326.75V52Z" fill="#D9D9D9"/>
<path d="M338.75 52H339.75V53H338.75V52Z" fill="#D9D9D9"/>
<path d="M-33.25 64H-32.25V65H-33.25V64Z" fill="#D9D9D9"/>
<path d="M-21.25 64H-20.25V65H-21.25V64Z" fill="#D9D9D9"/>
<path d="M-9.25 64H-8.25V65H-9.25V64Z" fill="#D9D9D9"/>
<path d="M2.75 64H3.75V65H2.75V64Z" fill="#D9D9D9"/>
<path d="M14.75 64H15.75V65H14.75V64Z" fill="#D9D9D9"/>
<path d="M26.75 64H27.75V65H26.75V64Z" fill="#D9D9D9"/>
<path d="M38.75 64H39.75V65H38.75V64Z" fill="#D9D9D9"/>
<path d="M50.75 64H51.75V65H50.75V64Z" fill="#D9D9D9"/>
<path d="M62.75 64H63.75V65H62.75V64Z" fill="#D9D9D9"/>
<path d="M74.75 64H75.75V65H74.75V64Z" fill="#D9D9D9"/>
<path d="M86.75 64H87.75V65H86.75V64Z" fill="#D9D9D9"/>
<path d="M98.75 64H99.75V65H98.75V64Z" fill="#D9D9D9"/>
<path d="M110.75 64H111.75V65H110.75V64Z" fill="#D9D9D9"/>
<path d="M122.75 64H123.75V65H122.75V64Z" fill="#D9D9D9"/>
<path d="M134.75 64H135.75V65H134.75V64Z" fill="#D9D9D9"/>
<path d="M146.75 64H147.75V65H146.75V64Z" fill="#D9D9D9"/>
<path d="M158.75 64H159.75V65H158.75V64Z" fill="#D9D9D9"/>
<path d="M170.75 64H171.75V65H170.75V64Z" fill="#D9D9D9"/>
<path d="M182.75 64H183.75V65H182.75V64Z" fill="#D9D9D9"/>
<path d="M194.75 64H195.75V65H194.75V64Z" fill="#D9D9D9"/>
<path d="M206.75 64H207.75V65H206.75V64Z" fill="#D9D9D9"/>
<path d="M218.75 64H219.75V65H218.75V64Z" fill="#D9D9D9"/>
<path d="M230.75 64H231.75V65H230.75V64Z" fill="#D9D9D9"/>
<path d="M242.75 64H243.75V65H242.75V64Z" fill="#D9D9D9"/>
<path d="M254.75 64H255.75V65H254.75V64Z" fill="#D9D9D9"/>
<path d="M266.75 64H267.75V65H266.75V64Z" fill="#D9D9D9"/>
<path d="M278.75 64H279.75V65H278.75V64Z" fill="#D9D9D9"/>
<path d="M290.75 64H291.75V65H290.75V64Z" fill="#D9D9D9"/>
<path d="M302.75 64H303.75V65H302.75V64Z" fill="#D9D9D9"/>
<path d="M314.75 64H315.75V65H314.75V64Z" fill="#D9D9D9"/>
<path d="M326.75 64H327.75V65H326.75V64Z" fill="#D9D9D9"/>
<path d="M338.75 64H339.75V65H338.75V64Z" fill="#D9D9D9"/>
<path d="M-33.25 76H-32.25V77H-33.25V76Z" fill="#D9D9D9"/>
<path d="M-21.25 76H-20.25V77H-21.25V76Z" fill="#D9D9D9"/>
<path d="M-9.25 76H-8.25V77H-9.25V76Z" fill="#D9D9D9"/>
<path d="M2.75 76H3.75V77H2.75V76Z" fill="#D9D9D9"/>
<path d="M14.75 76H15.75V77H14.75V76Z" fill="#D9D9D9"/>
<path d="M26.75 76H27.75V77H26.75V76Z" fill="#D9D9D9"/>
<path d="M38.75 76H39.75V77H38.75V76Z" fill="#D9D9D9"/>
<path d="M50.75 76H51.75V77H50.75V76Z" fill="#D9D9D9"/>
<path d="M62.75 76H63.75V77H62.75V76Z" fill="#D9D9D9"/>
<path d="M74.75 76H75.75V77H74.75V76Z" fill="#D9D9D9"/>
<path d="M86.75 76H87.75V77H86.75V76Z" fill="#D9D9D9"/>
<path d="M98.75 76H99.75V77H98.75V76Z" fill="#D9D9D9"/>
<path d="M110.75 76H111.75V77H110.75V76Z" fill="#D9D9D9"/>
<path d="M122.75 76H123.75V77H122.75V76Z" fill="#D9D9D9"/>
<path d="M134.75 76H135.75V77H134.75V76Z" fill="#D9D9D9"/>
<path d="M146.75 76H147.75V77H146.75V76Z" fill="#D9D9D9"/>
<path d="M158.75 76H159.75V77H158.75V76Z" fill="#D9D9D9"/>
<path d="M170.75 76H171.75V77H170.75V76Z" fill="#D9D9D9"/>
<path d="M182.75 76H183.75V77H182.75V76Z" fill="#D9D9D9"/>
<path d="M194.75 76H195.75V77H194.75V76Z" fill="#D9D9D9"/>
<path d="M206.75 76H207.75V77H206.75V76Z" fill="#D9D9D9"/>
<path d="M218.75 76H219.75V77H218.75V76Z" fill="#D9D9D9"/>
<path d="M230.75 76H231.75V77H230.75V76Z" fill="#D9D9D9"/>
<path d="M242.75 76H243.75V77H242.75V76Z" fill="#D9D9D9"/>
<path d="M254.75 76H255.75V77H254.75V76Z" fill="#D9D9D9"/>
<path d="M266.75 76H267.75V77H266.75V76Z" fill="#D9D9D9"/>
<path d="M278.75 76H279.75V77H278.75V76Z" fill="#D9D9D9"/>
<path d="M290.75 76H291.75V77H290.75V76Z" fill="#D9D9D9"/>
<path d="M302.75 76H303.75V77H302.75V76Z" fill="#D9D9D9"/>
<path d="M314.75 76H315.75V77H314.75V76Z" fill="#D9D9D9"/>
<path d="M326.75 76H327.75V77H326.75V76Z" fill="#D9D9D9"/>
<path d="M338.75 76H339.75V77H338.75V76Z" fill="#D9D9D9"/>
<path d="M-33.25 88H-32.25V89H-33.25V88Z" fill="#D9D9D9"/>
<path d="M-21.25 88H-20.25V89H-21.25V88Z" fill="#D9D9D9"/>
<path d="M-9.25 88H-8.25V89H-9.25V88Z" fill="#D9D9D9"/>
<path d="M2.75 88H3.75V89H2.75V88Z" fill="#D9D9D9"/>
<path d="M14.75 88H15.75V89H14.75V88Z" fill="#D9D9D9"/>
<path d="M26.75 88H27.75V89H26.75V88Z" fill="#D9D9D9"/>
<path d="M38.75 88H39.75V89H38.75V88Z" fill="#D9D9D9"/>
<path d="M50.75 88H51.75V89H50.75V88Z" fill="#D9D9D9"/>
<path d="M62.75 88H63.75V89H62.75V88Z" fill="#D9D9D9"/>
<path d="M74.75 88H75.75V89H74.75V88Z" fill="#D9D9D9"/>
<path d="M86.75 88H87.75V89H86.75V88Z" fill="#D9D9D9"/>
<path d="M98.75 88H99.75V89H98.75V88Z" fill="#D9D9D9"/>
<path d="M110.75 88H111.75V89H110.75V88Z" fill="#D9D9D9"/>
<path d="M122.75 88H123.75V89H122.75V88Z" fill="#D9D9D9"/>
<path d="M134.75 88H135.75V89H134.75V88Z" fill="#D9D9D9"/>
<path d="M146.75 88H147.75V89H146.75V88Z" fill="#D9D9D9"/>
<path d="M158.75 88H159.75V89H158.75V88Z" fill="#D9D9D9"/>
<path d="M170.75 88H171.75V89H170.75V88Z" fill="#D9D9D9"/>
<path d="M182.75 88H183.75V89H182.75V88Z" fill="#D9D9D9"/>
<path d="M194.75 88H195.75V89H194.75V88Z" fill="#D9D9D9"/>
<path d="M206.75 88H207.75V89H206.75V88Z" fill="#D9D9D9"/>
<path d="M218.75 88H219.75V89H218.75V88Z" fill="#D9D9D9"/>
<path d="M230.75 88H231.75V89H230.75V88Z" fill="#D9D9D9"/>
<path d="M242.75 88H243.75V89H242.75V88Z" fill="#D9D9D9"/>
<path d="M254.75 88H255.75V89H254.75V88Z" fill="#D9D9D9"/>
<path d="M266.75 88H267.75V89H266.75V88Z" fill="#D9D9D9"/>
<path d="M278.75 88H279.75V89H278.75V88Z" fill="#D9D9D9"/>
<path d="M290.75 88H291.75V89H290.75V88Z" fill="#D9D9D9"/>
<path d="M302.75 88H303.75V89H302.75V88Z" fill="#D9D9D9"/>
<path d="M314.75 88H315.75V89H314.75V88Z" fill="#D9D9D9"/>
<path d="M326.75 88H327.75V89H326.75V88Z" fill="#D9D9D9"/>
<path d="M338.75 88H339.75V89H338.75V88Z" fill="#D9D9D9"/>
<path d="M-33.25 100H-32.25V101H-33.25V100Z" fill="#D9D9D9"/>
<path d="M-21.25 100H-20.25V101H-21.25V100Z" fill="#D9D9D9"/>
<path d="M-9.25 100H-8.25V101H-9.25V100Z" fill="#D9D9D9"/>
<path d="M2.75 100H3.75V101H2.75V100Z" fill="#D9D9D9"/>
<path d="M14.75 100H15.75V101H14.75V100Z" fill="#D9D9D9"/>
<path d="M26.75 100H27.75V101H26.75V100Z" fill="#D9D9D9"/>
<path d="M38.75 100H39.75V101H38.75V100Z" fill="#D9D9D9"/>
<path d="M50.75 100H51.75V101H50.75V100Z" fill="#D9D9D9"/>
<path d="M62.75 100H63.75V101H62.75V100Z" fill="#D9D9D9"/>
<path d="M74.75 100H75.75V101H74.75V100Z" fill="#D9D9D9"/>
<path d="M86.75 100H87.75V101H86.75V100Z" fill="#D9D9D9"/>
<path d="M98.75 100H99.75V101H98.75V100Z" fill="#D9D9D9"/>
<path d="M110.75 100H111.75V101H110.75V100Z" fill="#D9D9D9"/>
<path d="M122.75 100H123.75V101H122.75V100Z" fill="#D9D9D9"/>
<path d="M134.75 100H135.75V101H134.75V100Z" fill="#D9D9D9"/>
<path d="M146.75 100H147.75V101H146.75V100Z" fill="#D9D9D9"/>
<path d="M158.75 100H159.75V101H158.75V100Z" fill="#D9D9D9"/>
<path d="M170.75 100H171.75V101H170.75V100Z" fill="#D9D9D9"/>
<path d="M182.75 100H183.75V101H182.75V100Z" fill="#D9D9D9"/>
<path d="M194.75 100H195.75V101H194.75V100Z" fill="#D9D9D9"/>
<path d="M206.75 100H207.75V101H206.75V100Z" fill="#D9D9D9"/>
<path d="M218.75 100H219.75V101H218.75V100Z" fill="#D9D9D9"/>
<path d="M230.75 100H231.75V101H230.75V100Z" fill="#D9D9D9"/>
<path d="M242.75 100H243.75V101H242.75V100Z" fill="#D9D9D9"/>
<path d="M254.75 100H255.75V101H254.75V100Z" fill="#D9D9D9"/>
<path d="M266.75 100H267.75V101H266.75V100Z" fill="#D9D9D9"/>
<path d="M278.75 100H279.75V101H278.75V100Z" fill="#D9D9D9"/>
<path d="M290.75 100H291.75V101H290.75V100Z" fill="#D9D9D9"/>
<path d="M302.75 100H303.75V101H302.75V100Z" fill="#D9D9D9"/>
<path d="M314.75 100H315.75V101H314.75V100Z" fill="#D9D9D9"/>
<path d="M326.75 100H327.75V101H326.75V100Z" fill="#D9D9D9"/>
<path d="M338.75 100H339.75V101H338.75V100Z" fill="#D9D9D9"/>
<path d="M-33.25 112H-32.25V113H-33.25V112Z" fill="#D9D9D9"/>
<path d="M-21.25 112H-20.25V113H-21.25V112Z" fill="#D9D9D9"/>
<path d="M-9.25 112H-8.25V113H-9.25V112Z" fill="#D9D9D9"/>
<path d="M2.75 112H3.75V113H2.75V112Z" fill="#D9D9D9"/>
<path d="M14.75 112H15.75V113H14.75V112Z" fill="#D9D9D9"/>
<path d="M26.75 112H27.75V113H26.75V112Z" fill="#D9D9D9"/>
<path d="M38.75 112H39.75V113H38.75V112Z" fill="#D9D9D9"/>
<path d="M50.75 112H51.75V113H50.75V112Z" fill="#D9D9D9"/>
<path d="M62.75 112H63.75V113H62.75V112Z" fill="#D9D9D9"/>
<path d="M74.75 112H75.75V113H74.75V112Z" fill="#D9D9D9"/>
<path d="M86.75 112H87.75V113H86.75V112Z" fill="#D9D9D9"/>
<path d="M98.75 112H99.75V113H98.75V112Z" fill="#D9D9D9"/>
<path d="M110.75 112H111.75V113H110.75V112Z" fill="#D9D9D9"/>
<path d="M122.75 112H123.75V113H122.75V112Z" fill="#D9D9D9"/>
<path d="M134.75 112H135.75V113H134.75V112Z" fill="#D9D9D9"/>
<path d="M146.75 112H147.75V113H146.75V112Z" fill="#D9D9D9"/>
<path d="M158.75 112H159.75V113H158.75V112Z" fill="#D9D9D9"/>
<path d="M170.75 112H171.75V113H170.75V112Z" fill="#D9D9D9"/>
<path d="M182.75 112H183.75V113H182.75V112Z" fill="#D9D9D9"/>
<path d="M194.75 112H195.75V113H194.75V112Z" fill="#D9D9D9"/>
<path d="M206.75 112H207.75V113H206.75V112Z" fill="#D9D9D9"/>
<path d="M218.75 112H219.75V113H218.75V112Z" fill="#D9D9D9"/>
<path d="M230.75 112H231.75V113H230.75V112Z" fill="#D9D9D9"/>
<path d="M242.75 112H243.75V113H242.75V112Z" fill="#D9D9D9"/>
<path d="M254.75 112H255.75V113H254.75V112Z" fill="#D9D9D9"/>
<path d="M266.75 112H267.75V113H266.75V112Z" fill="#D9D9D9"/>
<path d="M278.75 112H279.75V113H278.75V112Z" fill="#D9D9D9"/>
<path d="M290.75 112H291.75V113H290.75V112Z" fill="#D9D9D9"/>
<path d="M302.75 112H303.75V113H302.75V112Z" fill="#D9D9D9"/>
<path d="M314.75 112H315.75V113H314.75V112Z" fill="#D9D9D9"/>
<path d="M326.75 112H327.75V113H326.75V112Z" fill="#D9D9D9"/>
<path d="M338.75 112H339.75V113H338.75V112Z" fill="#D9D9D9"/>
<path d="M-33.25 124H-32.25V125H-33.25V124Z" fill="#D9D9D9"/>
<path d="M-21.25 124H-20.25V125H-21.25V124Z" fill="#D9D9D9"/>
<path d="M-9.25 124H-8.25V125H-9.25V124Z" fill="#D9D9D9"/>
<path d="M2.75 124H3.75V125H2.75V124Z" fill="#D9D9D9"/>
<path d="M14.75 124H15.75V125H14.75V124Z" fill="#D9D9D9"/>
<path d="M26.75 124H27.75V125H26.75V124Z" fill="#D9D9D9"/>
<path d="M38.75 124H39.75V125H38.75V124Z" fill="#D9D9D9"/>
<path d="M50.75 124H51.75V125H50.75V124Z" fill="#D9D9D9"/>
<path d="M62.75 124H63.75V125H62.75V124Z" fill="#D9D9D9"/>
<path d="M74.75 124H75.75V125H74.75V124Z" fill="#D9D9D9"/>
<path d="M86.75 124H87.75V125H86.75V124Z" fill="#D9D9D9"/>
<path d="M98.75 124H99.75V125H98.75V124Z" fill="#D9D9D9"/>
<path d="M110.75 124H111.75V125H110.75V124Z" fill="#D9D9D9"/>
<path d="M122.75 124H123.75V125H122.75V124Z" fill="#D9D9D9"/>
<path d="M134.75 124H135.75V125H134.75V124Z" fill="#D9D9D9"/>
<path d="M146.75 124H147.75V125H146.75V124Z" fill="#D9D9D9"/>
<path d="M158.75 124H159.75V125H158.75V124Z" fill="#D9D9D9"/>
<path d="M170.75 124H171.75V125H170.75V124Z" fill="#D9D9D9"/>
<path d="M182.75 124H183.75V125H182.75V124Z" fill="#D9D9D9"/>
<path d="M194.75 124H195.75V125H194.75V124Z" fill="#D9D9D9"/>
<path d="M206.75 124H207.75V125H206.75V124Z" fill="#D9D9D9"/>
<path d="M218.75 124H219.75V125H218.75V124Z" fill="#D9D9D9"/>
<path d="M230.75 124H231.75V125H230.75V124Z" fill="#D9D9D9"/>
<path d="M242.75 124H243.75V125H242.75V124Z" fill="#D9D9D9"/>
<path d="M254.75 124H255.75V125H254.75V124Z" fill="#D9D9D9"/>
<path d="M266.75 124H267.75V125H266.75V124Z" fill="#D9D9D9"/>
<path d="M278.75 124H279.75V125H278.75V124Z" fill="#D9D9D9"/>
<path d="M290.75 124H291.75V125H290.75V124Z" fill="#D9D9D9"/>
<path d="M302.75 124H303.75V125H302.75V124Z" fill="#D9D9D9"/>
<path d="M314.75 124H315.75V125H314.75V124Z" fill="#D9D9D9"/>
<path d="M326.75 124H327.75V125H326.75V124Z" fill="#D9D9D9"/>
<path d="M338.75 124H339.75V125H338.75V124Z" fill="#D9D9D9"/>
</g>
</g>
<defs>
<clipPath id="clip0_19_13516">
<rect width="303.75" height="118" fill="white" transform="translate(0.75)"/>
</clipPath>
<clipPath id="clip1_19_13516">
<rect width="303.75" height="118" fill="white" transform="translate(0.75)"/>
</clipPath>
</defs>
</svg>
