<svg xmlns="http://www.w3.org/2000/svg" xmlns:xlink="http://www.w3.org/1999/xlink" width="157" zoomAndPan="magnify" viewBox="0 0 117.75 30.000001" height="40" preserveAspectRatio="xMidYMid meet" version="1.0"><defs><g/><clipPath id="2573cff3cd"><path d="M 27.707031 4.203125 L 40.769531 4.203125 L 40.769531 17 L 27.707031 17 Z M 27.707031 4.203125 " clip-rule="nonzero"/></clipPath><clipPath id="0e00effe6e"><path d="M 30 17 L 37 17 L 37 24.527344 L 30 24.527344 Z M 30 17 " clip-rule="nonzero"/></clipPath></defs><g clip-path="url(#2573cff3cd)"><path fill="#171717" d="M 27.707031 11.757812 L 40.730469 4.207031 L 40.386719 9.582031 L 29.292969 16.015625 Z M 27.707031 11.757812 " fill-opacity="1" fill-rule="nonzero"/></g><path fill="#171717" d="M 29.292969 16.015625 L 38.453125 10.703125 L 38.109375 16.078125 L 30.878906 20.269531 Z M 29.292969 16.015625 " fill-opacity="0.5" fill-rule="nonzero"/><g clip-path="url(#0e00effe6e)"><path fill="#171717" d="M 30.878906 20.269531 L 36.175781 17.199219 L 35.828125 22.574219 L 32.464844 24.527344 Z M 30.878906 20.269531 " fill-opacity="0.25" fill-rule="nonzero"/></g><g fill="#171717" fill-opacity="1"><g transform="translate(46.844949, 19.398989)"><g><path d="M 3.46875 0 L 1.671875 0 L 1.671875 -6.125 L 0.140625 -6.125 L 0.140625 -7.671875 L 1.671875 -7.671875 L 1.671875 -8.125 C 1.671875 -8.414062 1.710938 -8.707031 1.796875 -9 C 1.878906 -9.289062 2.015625 -9.554688 2.203125 -9.796875 C 2.390625 -10.046875 2.632812 -10.242188 2.9375 -10.390625 C 3.25 -10.535156 3.617188 -10.609375 4.046875 -10.609375 L 5.515625 -10.609375 L 5.515625 -9.109375 L 4.5 -9.109375 C 4.28125 -9.109375 4.09375 -9.054688 3.9375 -8.953125 C 3.789062 -8.847656 3.675781 -8.707031 3.59375 -8.53125 C 3.507812 -8.363281 3.46875 -8.179688 3.46875 -7.984375 L 3.46875 -7.671875 L 5.484375 -7.671875 L 5.484375 -6.125 L 3.46875 -6.125 Z M 3.46875 0 "/></g></g></g><g fill="#171717" fill-opacity="1"><g transform="translate(51.679486, 19.398989)"><g><path d="M 1.953125 -8.875 C 1.597656 -8.875 1.320312 -8.972656 1.125 -9.171875 C 0.9375 -9.378906 0.84375 -9.625 0.84375 -9.90625 C 0.84375 -10.1875 0.9375 -10.425781 1.125 -10.625 C 1.320312 -10.832031 1.597656 -10.9375 1.953125 -10.9375 C 2.316406 -10.9375 2.597656 -10.832031 2.796875 -10.625 C 2.992188 -10.425781 3.09375 -10.1875 3.09375 -9.90625 C 3.09375 -9.625 2.992188 -9.378906 2.796875 -9.171875 C 2.597656 -8.972656 2.316406 -8.875 1.953125 -8.875 Z M 2.875 0 L 1.0625 0 L 1.0625 -7.671875 L 2.875 -7.671875 Z M 2.875 0 "/></g></g></g><g fill="#171717" fill-opacity="1"><g transform="translate(54.834286, 19.398989)"><g><path d="M 5.78125 0 L 4.21875 0 C 3.988281 0 3.753906 -0.0195312 3.515625 -0.0625 C 3.273438 -0.101562 3.046875 -0.179688 2.828125 -0.296875 C 2.609375 -0.410156 2.410156 -0.578125 2.234375 -0.796875 C 2.066406 -1.015625 1.929688 -1.296875 1.828125 -1.640625 C 1.722656 -1.984375 1.671875 -2.410156 1.671875 -2.921875 L 1.671875 -6.125 L 0.078125 -6.125 L 0.078125 -7.671875 L 1.671875 -7.671875 L 1.671875 -9.921875 L 3.484375 -9.9375 L 3.484375 -7.671875 L 5.78125 -7.671875 L 5.78125 -6.125 L 3.484375 -6.125 L 3.484375 -2.84375 C 3.484375 -2.476562 3.535156 -2.195312 3.640625 -2 C 3.742188 -1.8125 3.878906 -1.679688 4.046875 -1.609375 C 4.222656 -1.535156 4.40625 -1.5 4.59375 -1.5 L 5.78125 -1.5 Z M 5.78125 0 "/></g></g></g><g fill="#171717" fill-opacity="1"><g transform="translate(60.251132, 19.398989)"><g><path d="M 3.46875 0 L 1.671875 0 L 1.671875 -6.125 L 0.140625 -6.125 L 0.140625 -7.671875 L 1.671875 -7.671875 L 1.671875 -8.125 C 1.671875 -8.414062 1.710938 -8.707031 1.796875 -9 C 1.878906 -9.289062 2.015625 -9.554688 2.203125 -9.796875 C 2.390625 -10.046875 2.632812 -10.242188 2.9375 -10.390625 C 3.25 -10.535156 3.617188 -10.609375 4.046875 -10.609375 L 5.515625 -10.609375 L 5.515625 -9.109375 L 4.5 -9.109375 C 4.28125 -9.109375 4.09375 -9.054688 3.9375 -8.953125 C 3.789062 -8.847656 3.675781 -8.707031 3.59375 -8.53125 C 3.507812 -8.363281 3.46875 -8.179688 3.46875 -7.984375 L 3.46875 -7.671875 L 5.484375 -7.671875 L 5.484375 -6.125 L 3.46875 -6.125 Z M 3.46875 0 "/></g></g></g><g fill="#171717" fill-opacity="1"><g transform="translate(65.085669, 19.398989)"><g><path d="M 2.875 0 L 1.0625 0 L 1.0625 -10.53125 L 2.875 -10.53125 Z M 2.875 0 "/></g></g></g><g fill="#171717" fill-opacity="1"><g transform="translate(68.240469, 19.398989)"><g><path d="M 4.546875 0.234375 C 3.960938 0.234375 3.425781 0.128906 2.9375 -0.078125 C 2.445312 -0.285156 2.019531 -0.578125 1.65625 -0.953125 C 1.289062 -1.328125 1.007812 -1.757812 0.8125 -2.25 C 0.613281 -2.75 0.515625 -3.28125 0.515625 -3.84375 C 0.515625 -4.40625 0.613281 -4.929688 0.8125 -5.421875 C 1.007812 -5.910156 1.289062 -6.34375 1.65625 -6.71875 C 2.019531 -7.09375 2.445312 -7.382812 2.9375 -7.59375 C 3.425781 -7.800781 3.96875 -7.90625 4.5625 -7.90625 C 5.144531 -7.90625 5.679688 -7.800781 6.171875 -7.59375 C 6.671875 -7.382812 7.101562 -7.09375 7.46875 -6.71875 C 7.832031 -6.34375 8.113281 -5.910156 8.3125 -5.421875 C 8.507812 -4.929688 8.609375 -4.40625 8.609375 -3.84375 C 8.609375 -3.269531 8.507812 -2.738281 8.3125 -2.25 C 8.113281 -1.757812 7.832031 -1.328125 7.46875 -0.953125 C 7.101562 -0.578125 6.671875 -0.285156 6.171875 -0.078125 C 5.679688 0.128906 5.140625 0.234375 4.546875 0.234375 Z M 4.5625 -1.453125 C 5 -1.453125 5.382812 -1.550781 5.71875 -1.75 C 6.0625 -1.957031 6.328125 -2.238281 6.515625 -2.59375 C 6.710938 -2.957031 6.8125 -3.375 6.8125 -3.84375 C 6.8125 -4.300781 6.710938 -4.707031 6.515625 -5.0625 C 6.328125 -5.425781 6.0625 -5.710938 5.71875 -5.921875 C 5.382812 -6.128906 5 -6.234375 4.5625 -6.234375 C 4.132812 -6.234375 3.75 -6.128906 3.40625 -5.921875 C 3.0625 -5.710938 2.789062 -5.425781 2.59375 -5.0625 C 2.40625 -4.707031 2.3125 -4.300781 2.3125 -3.84375 C 2.3125 -3.375 2.40625 -2.957031 2.59375 -2.59375 C 2.789062 -2.238281 3.0625 -1.957031 3.40625 -1.75 C 3.75 -1.550781 4.132812 -1.453125 4.5625 -1.453125 Z M 4.5625 -1.453125 "/></g></g></g><g fill="#171717" fill-opacity="1"><g transform="translate(76.598721, 19.398989)"><g><path d="M 4.28125 0 L 2.65625 0 L 0.078125 -7.671875 L 2.015625 -7.671875 L 3.515625 -2.8125 L 3.65625 -2.359375 L 3.671875 -2.359375 L 3.8125 -2.8125 L 5.265625 -7.671875 L 6.609375 -7.671875 L 8.015625 -2.859375 L 8.171875 -2.359375 L 8.1875 -2.359375 L 8.375 -2.890625 L 9.875 -7.671875 L 11.78125 -7.671875 L 9.1875 0 L 7.515625 0 L 5.921875 -4.96875 L 5.90625 -4.96875 Z M 4.28125 0 "/></g></g></g></svg>